Coordinates
version=1
nRows=16
nColumns=40
inDegrees=yes
endheader
time	pelvis_tilt	pelvis_list	pelvis_rotation	pelvis_tx	pelvis_ty	pelvis_tz	hip_flexion_r	hip_adduction_r	hip_rotation_r	knee_angle_r	knee_angle_r_beta	ankle_angle_r	subtalar_angle_r	mtp_angle_r	hip_flexion_l	hip_adduction_l	hip_rotation_l	knee_angle_l	knee_angle_l_beta	ankle_angle_l	subtalar_angle_l	mtp_angle_l	lumbar_extension	lumbar_bending	lumbar_rotation	arm_flex_r	arm_add_r	arm_rot_r	elbow_flex_r	pro_sup_r	wrist_flex_r	wrist_dev_r	arm_flex_l	arm_add_l	arm_rot_l	elbow_flex_l	pro_sup_l	wrist_flex_l	wrist_dev_l
1760624930.31800008	      0.14000558	     -0.51646095	      2.21478948	     -0.03624455	      0.93911371	     -0.00165362	     80.00000000	     -7.00000000	      0.00000000	     80.00000000	      1.39626340	      0.00000000	      0.00000000	      0.00000000	     80.00000000	     -7.00000000	      0.00000000	     80.00000000	      1.39626340	      0.00000000	      0.00000000	      0.00000000	     -3.29330058	     -1.55772569	      1.45745480	      5.24663297	    -10.85749316	     -1.37328501	     16.43412520	      4.54576731	    -17.61735922	      8.62910333	      2.31431297	     -2.29619574	      3.15601795	      0.00000000	      0.00000000	      0.31358994	      0.49620285
1760624930.35100007	      0.15373017	     -0.51823028	      2.23300273	     -0.03714098	      0.93893864	     -0.00186070	     80.00000000	     -7.00000000	      0.00000000	     80.00000000	      1.39626340	      0.00000000	      0.00000000	      0.00000000	     80.00000000	     -7.00000000	      0.00000000	     80.00000000	      1.39626340	      0.00000000	      0.00000000	      0.00000000	     -3.24697215	     -1.59754497	      1.43597578	      5.17566823	    -10.81445192	     -1.43050127	     16.44463326	      4.58098971	    -17.60854007	      8.62688101	      2.27277850	     -2.34278267	      3.16903663	      0.00000000	      0.00000000	      0.32024901	      0.50218959
1760624930.38499999	      0.16001952	     -0.52025845	      2.23296105	     -0.03683157	      0.93889620	     -0.00183243	     80.00000000	     -7.00000000	      0.00000000	     80.00000000	      1.39626340	      0.00000000	      0.00000000	      0.00000000	     80.00000000	     -7.00000000	      0.00000000	     80.00000000	      1.39626340	      0.00000000	      0.00000000	      0.00000000	     -3.23414621	     -1.60794107	      1.43728627	      5.17878723	    -10.80621584	     -1.41672969	     16.45272516	      4.60124995	    -17.60270658	      8.62974523	      2.27352492	     -2.33198990	      3.18626842	      0.00000000	      0.00000000	      0.33130082	      0.51134492
1760624930.41799998	      0.15472904	     -0.50868260	      2.22952538	     -0.03602093	      0.93831080	     -0.00228406	     80.00000000	     -7.00000000	      0.00000000	     80.00000000	      1.39626340	      0.00000000	      0.00000000	      0.00000000	     80.00000000	     -7.00000000	      0.00000000	     80.00000000	      1.39626340	      0.00000000	      0.00000000	      0.00000000	     -3.12559875	     -1.66998608	      1.44932484	      5.08173034	    -10.78684128	     -1.49275714	     16.43223603	      4.63363006	    -17.56943922	      8.67317053	      2.17710728	     -2.36096427	      3.20254842	      0.00000000	      0.00000000	      0.34266047	      0.51747310
1760624930.45199990	      0.16472230	     -0.50279689	      2.23765944	     -0.03601177	      0.93788089	     -0.00229363	     80.00000000	     -7.00000000	      0.00000000	     80.00000000	      1.39626340	      0.00000000	      0.00000000	      0.00000000	     80.00000000	     -7.00000000	      0.00000000	     80.00000000	      1.39626340	      0.00000000	      0.00000000	      0.00000000	     -3.11262876	     -1.68879045	      1.46823555	      5.11065904	    -10.77746388	     -1.50449370	     16.41452399	      4.58880658	    -17.59921730	      8.67792029	      2.16466702	     -2.34251293	      3.23673993	      0.00000000	      0.00000000	      0.36699866	      0.53037226
1760624930.48499990	      0.16547403	     -0.49636541	      2.23223944	     -0.03661603	      0.93800606	     -0.00229207	     80.00000000	     -7.00000000	      0.00000000	     80.00000000	      1.39626340	      0.00000000	      0.00000000	      0.00000000	     80.00000000	     -7.00000000	      0.00000000	     80.00000000	      1.39626340	      0.00000000	      0.00000000	      0.00000000	     -3.11106020	     -1.70724503	      1.51843712	      5.18327339	    -10.76657520	     -1.50464543	     16.42742039	      4.58113318	    -17.62708167	      8.68530385	      2.14286334	     -2.31567017	      3.31390923	      0.04511549	      0.00000000	      0.35806131	      0.54193889
1760624930.51900005	      0.17842233	     -0.50125430	      2.22842593	     -0.03738379	      0.93826282	     -0.00242216	     80.00000000	     -7.00000000	      0.00000000	     80.00000000	      1.39626340	      0.00000000	      0.00000000	      0.00000000	     80.00000000	     -7.00000000	      0.00000000	     80.00000000	      1.39626340	      0.00000000	      0.00000000	      0.00000000	     -3.09890172	     -1.71635190	      1.52078519	      5.19159730	    -10.75863912	     -1.51538676	     16.43561588	      4.56890180	    -17.61957239	      8.69393241	      2.14277229	     -2.29625642	      3.30955710	      0.05510281	      0.00000000	      0.35954534	      0.55510019
1760624930.55200005	      0.18484528	     -0.49975953	      2.21519091	     -0.03855388	      0.93842663	     -0.00247100	     80.00000000	     -7.00000000	      0.00000000	     80.00000000	      1.39626340	      0.00000000	      0.00000000	      0.00000000	     80.00000000	     -7.00000000	      0.00000000	     80.00000000	      1.39626340	      0.00000000	      0.00000000	      0.00000000	     -3.05081273	     -1.71258283	      1.58837134	      5.13854941	    -10.77409010	     -1.50845293	     16.41258338	      4.50186183	    -17.59029012	      8.66513070	      2.09934304	     -2.26348819	      3.40673461	      0.06665567	      0.00000000	      0.36313225	      0.56613853
1760624930.58599997	      0.17894597	     -0.49264011	      2.21429728	     -0.03794757	      0.93792524	     -0.00305905	     80.00000000	     -7.00000000	      0.00000000	     80.00000000	      1.39626340	      0.00000000	      0.00000000	      0.00000000	     80.00000000	     -7.00000000	      0.00000000	     80.00000000	      1.39626340	      0.00000000	      0.00000000	      0.00000000	     -3.03592885	     -1.72711310	      1.58541660	      5.14413173	    -10.81357068	     -1.49349151	     16.44012648	      4.54750463	    -17.53987325	      8.68697412	      2.11966824	     -2.24497879	      3.41210914	      0.06492437	      0.00000000	      0.33408312	      0.54983647
1760624930.61899996	      0.18720450	     -0.49314895	      2.22565095	     -0.03723088	      0.93777608	     -0.00326789	     80.00000000	     -7.00000000	      0.00000000	     80.00000000	      1.39626340	      0.00000000	      0.00000000	      0.00000000	     80.00000000	     -7.00000000	      0.00000000	     80.00000000	      1.39626340	      0.00000000	      0.00000000	      0.00000000	     -3.03342056	     -1.72092950	      1.55840245	      5.12138764	    -10.89642586	     -1.49834548	     16.42772490	      4.57342365	    -17.48931247	      8.74549727	      2.20356230	     -2.20756303	      3.38521236	      0.00000000	      0.00000000	      0.33314923	      0.54968333
1760624930.65300012	      0.18724769	     -0.50059520	      2.23843799	     -0.03578863	      0.93718011	     -0.00405327	     80.00000000	     -7.00000000	      0.00000000	     80.00000000	      1.39626340	      0.00000000	      0.00000000	      0.00000000	     80.00000000	     -7.00000000	      0.00000000	     80.00000000	      1.39626340	      0.00000000	      0.00000000	      0.00000000	     -2.94916980	     -1.69102230	      1.56991238	      5.01544540	    -10.98030990	     -1.49491653	     16.25464866	      4.58511723	    -17.26056091	      8.80441287	      2.13922100	     -2.17902123	      3.39591086	      0.00000000	      0.00000000	      0.35245018	      0.56376743
1760624930.68600011	      0.18872836	     -0.49856769	      2.23539513	     -0.03525113	      0.93710636	     -0.00422525	     80.00000000	     -7.00000000	      0.00000000	     80.00000000	      1.39626340	      0.00000000	      0.00000000	      0.00000000	     80.00000000	     -7.00000000	      0.00000000	     80.00000000	      1.39626340	      0.00000000	      0.00000000	      0.00000000	     -3.01901259	     -1.70776045	      1.56085326	      5.13742736	    -11.00469703	     -1.44912332	     15.93728088	      4.61521111	    -16.94762972	      8.87148559	      2.24376999	     -2.17450692	      3.35460554	      0.00000000	      0.00000000	      0.33724825	      0.55621843
1760624930.71900010	      0.19516335	     -0.50183935	      2.25025125	     -0.03490237	      0.93716280	     -0.00420081	     80.00000000	     -7.00000000	      0.00000000	     80.00000000	      1.39626340	      0.00000000	      0.00000000	      0.00000000	     80.00000000	     -7.00000000	      0.00000000	     80.00000000	      1.39626340	      0.00000000	      0.00000000	      0.00000000	     -3.00284022	     -1.71612524	      1.53688198	      5.05424120	    -10.98839653	     -1.44801642	     15.93255281	      4.61931208	    -16.85082179	      8.84382675	      2.24182191	     -2.17287956	      3.32684467	      0.00000000	      0.00000000	      0.33513532	      0.56488225
1760624930.75300002	      0.18798656	     -0.50582575	      2.25484369	     -0.03498322	      0.93730943	     -0.00336286	     80.00000000	     -7.00000000	      0.00000000	     80.00000000	      1.39626340	      0.00000000	      0.00000000	      0.00000000	     80.00000000	     -7.00000000	      0.00000000	     80.00000000	      1.39626340	      0.00000000	      0.00000000	      0.00000000	     -3.00771851	     -1.73240133	      1.56534273	      5.12544270	    -10.91700218	     -1.45344222	     15.87076736	      4.60589711	    -16.82798603	      8.78124556	      2.27129923	     -2.17725409	      3.33764989	      0.00000000	      0.00000000	      0.33771177	      0.56993540
1760624930.78600001	      0.19740331	     -0.50878758	      2.26384602	     -0.03519971	      0.93759479	     -0.00288134	     80.00000000	     -7.00000000	      0.00000000	     80.00000000	      1.39626340	      0.00000000	      0.00000000	      0.00000000	     80.00000000	     -7.00000000	      0.00000000	     80.00000000	      1.39626340	      0.00000000	      0.00000000	      0.00000000	     -3.04565363	     -1.76622046	      1.60285056	      5.19315776	    -10.87124810	     -1.42341149	     15.84461525	      4.59666030	    -16.82320802	      8.77645558	      2.30013375	     -2.20218568	      3.40954415	      0.00000000	      0.00000000	      0.33231196	      0.56945707
1760624930.85299993	      0.21246283	     -0.51396265	      2.27253994	     -0.03546303	      0.93801461	     -0.00267396	     80.00000000	     -7.00000000	      0.00000000	     80.00000000	      1.39626340	      0.00000000	      0.00000000	      0.00000000	     80.00000000	     -7.00000000	      0.00000000	     80.00000000	      1.39626340	      0.00000000	      0.00000000	      0.00000000	     -3.09446925	     -1.75151392	      1.59240441	      5.24799737	    -10.82424224	     -1.38224560	     15.83625323	      4.60602599	    -16.83257044	      8.72372506	      2.32671494	     -2.15179489	      3.41402704	      0.00000000	      0.00000000	      0.33035410	      0.58123412
